<svg aria-hidden="true" style="position:absolute;width:0;height:0;overflow:hidden" xmlns="http://www.w3.org/2000/svg">
  <defs>
    <symbol id="icon-drop" viewBox="0 0 59 32">
      <path d="M.671.671a2.283 2.283 0 0 1 3.236 0l25.81 25.815L55.527.671a2.29 2.29 0 0 1 3.236 0 2.296 2.296 0 0 1 .67 1.618 2.29 2.29 0 0 1-.67 1.618L31.334 31.336a2.283 2.283 0 0 1-3.236 0L.669 3.907a2.283 2.283 0 0 1 0-3.236z"/>
    </symbol>
    <symbol id="icon-calendar" viewBox="0 0 32 32">
      <path d="M7 0a.997.997 0 0 1 1 1v1h16V1a.997.997 0 0 1 1-1 .997.997 0 0 1 1 1v1h2a4.003 4.003 0 0 1 4 4v22a4.003 4.003 0 0 1-4 4H4a4.003 4.003 0 0 1-4-4V6a4.003 4.003 0 0 1 4-4h2V1a.997.997 0 0 1 1-1zM4 4a2 2 0 0 0-2 2v22a2 2 0 0 0 2 2h24a2 2 0 0 0 2-2V6a2 2 0 0 0-2-2H4z"/>
      <path d="M5 8a.997.997 0 0 1 1-1h20a.997.997 0 0 1 1 1v2a.997.997 0 0 1-1 1H6a.997.997 0 0 1-1-1V8zm17 7a.997.997 0 0 1 1-1h2a.997.997 0 0 1 1 1v2a.997.997 0 0 1-1 1h-2a.997.997 0 0 1-1-1v-2zm-6 0a.997.997 0 0 1 1-1h2a.997.997 0 0 1 1 1v2a.997.997 0 0 1-1 1h-2a.997.997 0 0 1-1-1v-2zM6 21a.997.997 0 0 1 1-1h2a.997.997 0 0 1 1 1v2a.997.997 0 0 1-1 1H7a.997.997 0 0 1-1-1v-2zm6 0a.997.997 0 0 1 1-1h2a.997.997 0 0 1 1 1v2a.997.997 0 0 1-1 1h-2a.997.997 0 0 1-1-1v-2z"/>
    </symbol>
    <symbol id="icon-car" viewBox="0 0 32 32">
      <path d="M8 18a2 2 0 1 1-4.001-.001A2 2 0 0 1 8 18zm20 0a2 2 0 1 1-4.001-.001A2 2 0 0 1 28 18zm-16-2a2 2 0 0 0 0 4h8a2 2 0 0 0 0-4h-8zM9.724 8.552 7.812 12.38a1.02 1.02 0 0 0 .994 1.461c1.82-.146 4.7-.34 7.194-.34s5.376.194 7.194.34a1.018 1.018 0 0 0 .994-1.461l-1.912-3.826A1.002 1.002 0 0 0 21.382 8H10.618a1.002 1.002 0 0 0-.894.552z"/>
      <path d="M5.04 7.03A5.002 5.002 0 0 1 9.64 4h12.724a5 5 0 0 1 4.596 3.03l1.584 3.696c.15.35.42.638.76.808 1 .5 1.71 1.43 1.93 2.524l.67 3.358c.067.323.099.649.098.98v.826a4.97 4.97 0 0 1-2 3.994V27a.997.997 0 0 1-1 1h-4a.997.997 0 0 1-1-1v-2.676c-2.584.096-5.49.176-8 .176s-5.416-.08-8-.176V27a.997.997 0 0 1-1 1h-4a.997.997 0 0 1-1-1v-3.784a4.97 4.97 0 0 1-2-3.994v-.826c0-.329.033-.657.098-.98l.67-3.36a3.615 3.615 0 0 1 1.928-2.522 1.6 1.6 0 0 0 .762-.808L5.044 7.03H5.04zM9.64 6a3.004 3.004 0 0 0-2.758 1.82l-1.584 3.694a3.602 3.602 0 0 1-1.706 1.808 1.606 1.606 0 0 0-.86 1.128l-.672 3.358c-.039.194-.059.39-.06.588v.826a2.959 2.959 0 0 0 2.816 2.968c3.11.14 7.572.31 11.184.31s8.074-.168 11.184-.31A2.957 2.957 0 0 0 30 19.222v-.826c0-.197-.02-.393-.06-.588l-.67-3.36a1.611 1.611 0 0 0-.86-1.126 3.602 3.602 0 0 1-1.706-1.808L25.12 7.818A2.999 2.999 0 0 0 22.36 6H9.64z"/>
    </symbol>
    <symbol id="icon-fuel-pump" viewBox="0 0 32 32">
      <path d="M6 5a.997.997 0 0 1 1-1h10a.997.997 0 0 1 1 1v10a.997.997 0 0 1-1 1H7a.997.997 0 0 1-1-1V5z"/>
      <path d="M2 4a4.003 4.003 0 0 1 4-4h12a4.003 4.003 0 0 1 4 4v16a4.003 4.003 0 0 1 4 4v1a.997.997 0 0 0 1 1 .997.997 0 0 0 1-1v-9h-1a.997.997 0 0 1-1-1V8.75a.997.997 0 0 1 1-1h2.99c-.022-.952-.106-1.788-.402-2.444a1.944 1.944 0 0 0-.788-.916C28.432 4.17 27.872 4 27 4a.997.997 0 0 1-1-1 .997.997 0 0 1 1-1c1.128-.003 2.069.221 2.824.672.766.456 1.268 1.102 1.588 1.814.59 1.31.588 2.93.588 4.162v6.35c0 .132-.025.262-.076.383s-.124.232-.217.325a.991.991 0 0 1-.708.293h-1v9a3.004 3.004 0 0 1-3 3 3.004 3.004 0 0 1-3-3v-1a2 2 0 0 0-2-2v8h1a.997.997 0 0 1 1 1 .997.997 0 0 1-1 1h-22a.997.997 0 0 1-1-1 .997.997 0 0 1 1-1h1v-26zm18 0a2 2 0 0 0-2-2H6a2 2 0 0 0-2 2v26h16V4z"/>
    </symbol>
    <symbol id="icon-gear" viewBox="0 0 32 32">
      <path d="M16 9.508a6.49 6.49 0 1 0 6.492 6.49 6.495 6.495 0 0 0-1.901-4.591A6.495 6.495 0 0 0 16 9.506zM11.508 16A4.489 4.489 0 0 1 16 11.508 4.489 4.489 0 0 1 20.492 16 4.489 4.489 0 0 1 16 20.492 4.489 4.489 0 0 1 11.508 16z"/>
      <path d="M19.592 2.685c-1.054-3.58-6.13-3.58-7.184 0l-.188.638a1.754 1.754 0 0 1-1.006 1.12 1.756 1.756 0 0 1-1.504-.079l-.584-.32C5.846 2.26 2.26 5.848 4.046 9.126l.318.584a1.746 1.746 0 0 1-1.041 2.51l-.638.188c-3.58 1.054-3.58 6.13 0 7.184l.638.188a1.754 1.754 0 0 1 1.12 1.006 1.756 1.756 0 0 1-.079 1.504l-.32.584c-1.784 3.28 1.802 6.868 5.082 5.08l.584-.318a1.746 1.746 0 0 1 2.51 1.04l.188.638c1.054 3.58 6.13 3.58 7.184 0l.188-.638a1.754 1.754 0 0 1 1.006-1.12 1.74 1.74 0 0 1 1.504.08l.584.32c3.28 1.786 6.868-1.804 5.08-5.082l-.318-.584a1.746 1.746 0 0 1 1.04-2.51l.638-.188c3.58-1.054 3.58-6.13 0-7.184l-.638-.188a1.754 1.754 0 0 1-1.12-1.006 1.74 1.74 0 0 1 .08-1.504l.32-.584c1.786-3.28-1.804-6.866-5.082-5.08l-.584.318a1.746 1.746 0 0 1-2.51-1.041l-.188-.638zm-5.266.566c.492-1.67 2.856-1.67 3.348 0l.188.638a3.748 3.748 0 0 0 5.385 2.23l.582-.32c1.528-.83 3.2.84 2.368 2.37l-.318.584a3.74 3.74 0 0 0-.17 3.225 3.75 3.75 0 0 0 2.403 2.159l.636.188c1.67.492 1.67 2.856 0 3.348l-.638.188a3.748 3.748 0 0 0-2.23 5.385l.32.582c.83 1.528-.84 3.2-2.37 2.368l-.582-.318a3.76 3.76 0 0 0-3.227-.171 3.746 3.746 0 0 0-2.159 2.403l-.188.636c-.492 1.67-2.856 1.67-3.348 0l-.188-.638a3.737 3.737 0 0 0-2.16-2.401 3.752 3.752 0 0 0-3.225.171l-.584.32c-1.528.83-3.2-.84-2.368-2.37l.318-.582c.268-.491.423-1.036.452-1.594s-.066-1.116-.279-1.633a3.745 3.745 0 0 0-2.404-2.161l-.638-.188c-1.67-.492-1.67-2.856 0-3.348l.638-.188a3.742 3.742 0 0 0 2.229-5.382l-.32-.584c-.83-1.528.84-3.2 2.37-2.368l.584.318a3.756 3.756 0 0 0 3.225.171 3.748 3.748 0 0 0 2.16-2.401l.188-.638z"/>
    </symbol>
    <symbol id="icon-check-circle" viewBox="0 0 32 32">
      <path d="M16 30A14.002 14.002 0 0 1 2 16a13.998 13.998 0 1 1 23.899 9.899A13.996 13.996 0 0 1 16 30zm0 2a15.997 15.997 0 0 0 16-16A15.997 15.997 0 0 0 16 0 15.997 15.997 0 0 0 0 16a15.997 15.997 0 0 0 16 16z"/>
      <path d="m21.94 9.939-.04.044-6.946 8.85-4.186-4.188a1.497 1.497 0 0 0-2.083.037 1.5 1.5 0 0 0-.037 2.083l5.292 5.294a1.482 1.482 0 0 0 1.087.438 1.51 1.51 0 0 0 1.071-.478l7.984-9.98a1.502 1.502 0 0 0-1.09-2.535 1.498 1.498 0 0 0-1.052.435z"/>
    </symbol>
    <symbol id="icon-like" viewBox="0 0 32 32">
      <path d="M16 2.628C24.876-6.496 47.068 9.47 16 30-15.068 9.472 7.124-6.496 16 2.628z"/>
    </symbol>
    <symbol id="icon-location" viewBox="0 0 32 32">
      <path d="M23.061 16.762c-.982 1.991-2.314 3.975-3.675 5.756a60.032 60.032 0 0 1-4.136 4.819 59.83 59.83 0 0 1-4.136-4.819c-1.361-1.781-2.692-3.765-3.675-5.756-.994-2.012-1.564-3.896-1.564-5.512a9.376 9.376 0 0 1 18.75 0c0 1.616-.572 3.501-1.564 5.512zM15.25 30S26.5 19.339 26.5 11.25a11.249 11.249 0 1 0-22.5 0C4 19.339 15.25 30 15.25 30z"/>
      <path d="M15.25 15a3.752 3.752 0 0 1-3.75-3.75 3.752 3.752 0 0 1 3.75-3.75A3.752 3.752 0 0 1 19 11.25 3.752 3.752 0 0 1 15.25 15zm0 1.875a5.63 5.63 0 0 0 5.625-5.625 5.63 5.63 0 0 0-5.625-5.625 5.63 5.63 0 0 0-5.625 5.625 5.63 5.63 0 0 0 5.625 5.625z"/>
    </symbol>
    <symbol id="icon-car-go" viewBox="0 0 32 32">
<path fill="#007aff" style="fill: var(--color1, #007aff)" d="M13.053 15.062h2.611v1.74h-2.611v-1.74z"></path>
<path fill="#fff" style="fill: var(--color2, #fff)" d="M28.75 20.693c-0.853 1.003-3.172 1.189-3.172 1.189s-0.934-1.776-2.181-2.379c-1.686-0.816-4.164 3.371-4.164 3.371h-1.983l-5.948-0.992c0 0-1.218-2.211-2.578-2.379-1.794-0.222-3.371 3.569-3.371 3.569l-1.983-0.067v-8.855l1.388-0.793c1.983-3.966 1.586-6.741 7.931-7.336s8.696 6.946 10.905 7.535c2.974 0.793 5.195 5.351 5.155 7.138z"></path>
<path fill="#007aff" style="fill: var(--color1, #007aff)" d="M23.017 12.6c-1.543-2.525-3.649-4.661-6.152-6.239-1.157-0.733-2.475-1.172-3.84-1.278s-2.736 0.123-3.992 0.669c-1.099 0.518-2.055 1.296-2.785 2.266s-1.214 2.104-1.409 3.303c-0.070 0.409-0.122 0.801-0.174 1.183-0.815 0.132-1.556 0.549-2.092 1.177s-0.831 1.426-0.832 2.251v5.334c0 0.462 0.183 0.904 0.51 1.231s0.769 0.51 1.231 0.51v-7.075c0-0.462 0.183-0.904 0.51-1.231s0.769-0.51 1.231-0.51h16.299c1.677 0.002 3.285 0.67 4.471 1.856s1.853 2.794 1.856 4.471v0.635h-1.74c-0.368-0.896-1.052-1.626-1.923-2.049s-1.868-0.512-2.8-0.247c-0.932 0.264-1.734 0.862-2.253 1.68s-0.719 1.798-0.561 2.754c0.158 0.956 0.662 1.82 1.416 2.428s1.706 0.917 2.673 0.867 1.883-0.453 2.572-1.134c0.689-0.681 1.103-1.592 1.163-2.559h1.453c0.462 0 0.904-0.183 1.231-0.51s0.51-0.769 0.51-1.231v-0.635c-0.003-1.878-0.661-3.696-1.861-5.141s-2.864-2.428-4.709-2.778zM9.572 12.452h-3.542c0-0.27 0.078-0.548 0.131-0.87 0.15-0.956 0.543-1.858 1.14-2.619s1.379-1.358 2.271-1.732v5.221zM11.312 12.452v-5.587c1.625-0.211 3.272 0.146 4.664 1.009 1.9 1.184 3.541 2.741 4.821 4.577h-9.485zM22.451 24.966c-0.43 0-0.851-0.128-1.209-0.367s-0.637-0.579-0.801-0.976c-0.165-0.398-0.208-0.835-0.124-1.257s0.291-0.81 0.595-1.114c0.304-0.304 0.692-0.511 1.114-0.595s0.859-0.041 1.257 0.124c0.397 0.165 0.737 0.444 0.976 0.801s0.367 0.778 0.367 1.209c0 0.577-0.229 1.13-0.637 1.538s-0.961 0.637-1.538 0.637z"></path>
<path fill="#007aff" style="fill: var(--color1, #007aff)" d="M12.331 21.155c-0.368-0.896-1.052-1.626-1.923-2.049s-1.868-0.512-2.8-0.247c-0.932 0.264-1.734 0.862-2.253 1.68s-0.719 1.798-0.561 2.754c0.158 0.956 0.662 1.82 1.416 2.428s1.706 0.917 2.673 0.867c0.967-0.049 1.883-0.453 2.572-1.134s1.103-1.592 1.163-2.559h4.612v-0.218c-0.017-0.513 0.041-1.027 0.174-1.523h-5.073zM8.702 24.967c-0.43 0-0.851-0.128-1.209-0.367s-0.637-0.579-0.801-0.976c-0.165-0.398-0.208-0.835-0.124-1.257s0.291-0.81 0.595-1.114c0.304-0.304 0.692-0.511 1.114-0.595s0.859-0.041 1.257 0.124c0.397 0.165 0.737 0.444 0.976 0.801s0.367 0.778 0.367 1.209c0 0.577-0.229 1.13-0.637 1.538s-0.961 0.637-1.538 0.637z"></path>
</symbol>
<symbol id="icon-rout" viewBox="0 0 142 32">
<path fill="#fff" style="fill: var(--color2, #fff)" d="M0 0h142.466v31.914h-142.466v-31.914z"></path>
<path fill="#000" style="fill: var(--color3, #000)" d="M123.827 12.256c0 0.141-0.114 0.255-0.255 0.255v0c-0.141 0-0.256-0.114-0.256-0.255v-4.596c0-0.141 0.114-0.255 0.256-0.255v0c0.141 0 0.255 0.114 0.255 0.255v4.596z"></path>
<path fill="#000" style="fill: var(--color3, #000)" d="M118.978 20.076c-0.185 0-0.336-0.15-0.336-0.336v0c0-0.186 0.151-0.336 0.336-0.336h4.084c0.141 0 0.255-0.114 0.255-0.255v-4.922c0-0.172 0.14-0.312 0.313-0.312v0c0.172 0 0.312 0.14 0.312 0.312v5.339c0 0.282-0.228 0.511-0.511 0.511h-4.453z"></path>
<path fill="#000" style="fill: var(--color3, #000)" d="M112.163 20.076c-0.185 0-0.336-0.151-0.336-0.336v0c0-0.186 0.151-0.336 0.336-0.336h4.628c0.185 0 0.336 0.151 0.336 0.336v0c0 0.186-0.15 0.336-0.336 0.336h-4.628z"></path>
<path fill="#000" style="fill: var(--color3, #000)" d="M105.348 20.076c-0.185 0-0.336-0.151-0.336-0.336v0c0-0.186 0.15-0.336 0.336-0.336h4.628c0.185 0 0.336 0.151 0.336 0.336v0c0 0.186-0.15 0.336-0.336 0.336h-4.628z"></path>
<path fill="#000" style="fill: var(--color3, #000)" d="M98.533 20.076c-0.185 0-0.336-0.151-0.336-0.336v0c0-0.186 0.15-0.336 0.336-0.336h4.628c0.185 0 0.336 0.151 0.336 0.336v0c0 0.186-0.15 0.336-0.336 0.336h-4.628z"></path>
<path fill="#000" style="fill: var(--color3, #000)" d="M91.719 20.076c-0.186 0-0.336-0.151-0.336-0.336v0c0-0.186 0.15-0.336 0.336-0.336h4.628c0.185 0 0.336 0.151 0.336 0.336v0c0 0.186-0.151 0.336-0.336 0.336h-4.628z"></path>
<path fill="#000" style="fill: var(--color3, #000)" d="M84.903 20.076c-0.186 0-0.336-0.151-0.336-0.336v0c0-0.186 0.15-0.336 0.336-0.336h4.628c0.185 0 0.336 0.151 0.336 0.336v0c0 0.186-0.151 0.336-0.336 0.336h-4.628z"></path>
<path fill="#000" style="fill: var(--color3, #000)" d="M78.089 20.076c-0.186 0-0.336-0.151-0.336-0.336v0c0-0.186 0.15-0.336 0.336-0.336h4.628c0.186 0 0.336 0.151 0.336 0.336v0c0 0.186-0.15 0.336-0.336 0.336h-4.628z"></path>
<path fill="#000" style="fill: var(--color3, #000)" d="M71.274 20.076c-0.186 0-0.336-0.151-0.336-0.336v0c0-0.186 0.15-0.336 0.336-0.336h4.628c0.186 0 0.336 0.151 0.336 0.336v0c0 0.186-0.15 0.336-0.336 0.336h-4.628z"></path>
<path fill="#000" style="fill: var(--color3, #000)" d="M64.459 20.076c-0.185 0-0.336-0.151-0.336-0.336v0c0-0.186 0.151-0.336 0.336-0.336h4.628c0.186 0 0.336 0.151 0.336 0.336v0c0 0.186-0.15 0.336-0.336 0.336h-4.628z"></path>
<path fill="#000" style="fill: var(--color3, #000)" d="M57.644 20.076c-0.185 0-0.336-0.151-0.336-0.336v0c0-0.186 0.151-0.336 0.336-0.336h4.628c0.186 0 0.336 0.151 0.336 0.336v0c0 0.186-0.15 0.336-0.336 0.336h-4.628z"></path>
<path fill="#000" style="fill: var(--color3, #000)" d="M50.829 20.076c-0.185 0-0.336-0.151-0.336-0.336v0c0-0.186 0.15-0.336 0.336-0.336h4.628c0.185 0 0.336 0.151 0.336 0.336v0c0 0.186-0.15 0.336-0.336 0.336h-4.628z"></path>
<path fill="#000" style="fill: var(--color3, #000)" d="M44.014 20.076c-0.185 0-0.336-0.151-0.336-0.336v0c0-0.186 0.151-0.336 0.336-0.336h4.628c0.185 0 0.336 0.151 0.336 0.336v0c0 0.186-0.15 0.336-0.336 0.336h-4.628z"></path>
<path fill="#000" style="fill: var(--color3, #000)" d="M37.2 20.076c-0.186 0-0.336-0.151-0.336-0.336v0c0-0.186 0.151-0.336 0.336-0.336h4.628c0.186 0 0.336 0.151 0.336 0.336v0c0 0.186-0.151 0.336-0.336 0.336h-4.628z"></path>
<path fill="#000" style="fill: var(--color3, #000)" d="M30.385 20.076c-0.186 0-0.336-0.151-0.336-0.336v0c0-0.186 0.151-0.336 0.336-0.336h4.628c0.186 0 0.336 0.151 0.336 0.336v0c0 0.186-0.151 0.336-0.336 0.336h-4.628z"></path>
<path fill="#000" style="fill: var(--color3, #000)" d="M23.57 20.076c-0.186 0-0.336-0.151-0.336-0.336v0c0-0.186 0.15-0.336 0.336-0.336h4.628c0.186 0 0.336 0.151 0.336 0.336v0c0 0.186-0.15 0.336-0.336 0.336h-4.628z"></path>
<path fill="#000" style="fill: var(--color3, #000)" d="M7.66 25.276c-0.282 0-0.511-0.229-0.511-0.511v0c0-0.282 0.229-0.511 0.511-0.511h120.253c0.141 0 0.256-0.114 0.256-0.255v-16.085c0-0.282 0.228-0.511 0.511-0.511v0c0.282 0 0.511 0.229 0.511 0.511v16.851c0 0.282-0.229 0.511-0.511 0.511h-121.019z"></path>
<path fill="#000" style="fill: var(--color3, #000)" d="M7.404 16.085c-0.141 0-0.255-0.114-0.255-0.255v0c0-0.141 0.114-0.255 0.255-0.255h109.53c0.141 0 0.255-0.114 0.255-0.255v-7.682c0-0.129 0.104-0.233 0.233-0.233v0c0.128 0 0.233 0.104 0.233 0.233v7.937c0 0.282-0.228 0.511-0.511 0.511h-109.74z"></path>
</symbol>
  </defs>
</svg>
